# xmcd
#
# Track frame offsets:
#	150
#	8901
#	21167
#	57900
#	81424
#	100212
#	122513
#	151910
#	176900
#	189298
#	200973
#	206081
#	232628
#	261544
#	292082
#
# Disc length: 4122 seconds
#
# Revision: 1
# Processed by: cddbd v1.5.2PL0 Copyright (c) Steve Scherf et al.
# Submitted via: audiograbber 1.83.01
#
DISCID=d610180f
DTITLE=Hobo - Live 2011
DYEAR=2011
DGENRE=Country 'n' Roll
TTITLE0=Intro
TTITLE1=Ghostriders
TTITLE2=It's Hobo-Time
TTITLE3=Hip-Hop Cowboy
TTITLE4=When Hobos Cry
TTITLE5=Dieses Stück Holz
TTITLE6=Mein Vater War Ein Farmer
TTITLE7=Der Alte Cowboy
TTITLE8=The Lion Sleeps Tonight
TTITLE9=Pälzer King Of The Road
TTITLE10=Narren-Preludium
TTITLE11=König Der Narren
TTITLE12=American Trilogy
TTITLE13=Wohin Die Gleise Führ'n
TTITLE14=Nie Wirklich Weg
EXTD=
EXTT0=
EXTT1=
EXTT2=
EXTT3=
EXTT4=
EXTT5=
EXTT6=
EXTT7=
EXTT8=
EXTT9=
EXTT10=
EXTT11=
EXTT12=
EXTT13=
EXTT14=
PLAYORDER=
